<mxfile host="app.diagrams.net" modified="2023-09-17T10:37:27.275Z" agent="Mozilla/5.0 (Windows NT 10.0; Win64; x64; rv:109.0) Gecko/20100101 Firefox/117.0" etag="nOTD7seOHEqUf5LgPzfG" version="21.7.5" type="github">
  <diagram name="Page-1" id="e7e014a7-5840-1c2e-5031-d8a46d1fe8dd">
    <mxGraphModel dx="1050" dy="566" grid="1" gridSize="10" guides="1" tooltips="1" connect="1" arrows="1" fold="1" page="1" pageScale="1" pageWidth="1169" pageHeight="826" background="none" math="0" shadow="0">
      <root>
        <mxCell id="0" />
        <mxCell id="1" parent="0" />
        <mxCell id="5qcpB3Mo1QmMlgLMcYkL-41" value="" style="ellipse;shape=startState;fillColor=#000000;strokeColor=none;" vertex="1" parent="1">
          <mxGeometry x="185" y="30" width="30" height="30" as="geometry" />
        </mxCell>
        <mxCell id="5qcpB3Mo1QmMlgLMcYkL-42" value="Register/Login" style="fontSize=15;fillColor=default;" vertex="1" parent="1">
          <mxGeometry x="145" y="110" width="110" height="50" as="geometry" />
        </mxCell>
        <mxCell id="5qcpB3Mo1QmMlgLMcYkL-43" value="" style="endArrow=open;strokeColor=#FF0000;endFill=1;rounded=0;entryX=0.5;entryY=0;entryDx=0;entryDy=0;exitX=0.5;exitY=1;exitDx=0;exitDy=0;" edge="1" parent="1" target="5qcpB3Mo1QmMlgLMcYkL-48" source="5qcpB3Mo1QmMlgLMcYkL-42">
          <mxGeometry relative="1" as="geometry">
            <mxPoint x="185" y="212" as="targetPoint" />
            <mxPoint x="200" y="174" as="sourcePoint" />
          </mxGeometry>
        </mxCell>
        <mxCell id="5qcpB3Mo1QmMlgLMcYkL-44" value="" style="endArrow=open;strokeColor=#FF0000;endFill=1;rounded=0;exitX=0.5;exitY=1;exitDx=0;exitDy=0;entryX=0.5;entryY=0;entryDx=0;entryDy=0;" edge="1" parent="1" source="5qcpB3Mo1QmMlgLMcYkL-48" target="5qcpB3Mo1QmMlgLMcYkL-50">
          <mxGeometry relative="1" as="geometry">
            <mxPoint x="185" y="290" as="sourcePoint" />
            <mxPoint x="200" y="360" as="targetPoint" />
          </mxGeometry>
        </mxCell>
        <mxCell id="5qcpB3Mo1QmMlgLMcYkL-45" value="" style="edgeStyle=elbowEdgeStyle;elbow=horizontal;strokeColor=#FF0000;endArrow=open;endFill=1;rounded=0;entryX=1.018;entryY=0.56;entryDx=0;entryDy=0;entryPerimeter=0;exitX=1;exitY=0.5;exitDx=0;exitDy=0;" edge="1" parent="1" source="5qcpB3Mo1QmMlgLMcYkL-48" target="5qcpB3Mo1QmMlgLMcYkL-42">
          <mxGeometry width="100" height="100" relative="1" as="geometry">
            <mxPoint x="290" y="300" as="sourcePoint" />
            <mxPoint x="344.5" y="210" as="targetPoint" />
            <Array as="points">
              <mxPoint x="320" y="200" />
              <mxPoint x="330.5" y="202" />
              <mxPoint x="280.5" y="155" />
              <mxPoint x="120.5" y="192" />
              <mxPoint x="114.5" y="270" />
            </Array>
          </mxGeometry>
        </mxCell>
        <mxCell id="5qcpB3Mo1QmMlgLMcYkL-46" value="&lt;font style=&quot;font-size: 15px;&quot;&gt;Invalid&lt;/font&gt;" style="text;html=1;align=center;verticalAlign=middle;resizable=0;points=[];autosize=1;strokeColor=none;fillColor=none;" vertex="1" parent="1">
          <mxGeometry x="252.5" y="220" width="70" height="30" as="geometry" />
        </mxCell>
        <mxCell id="5qcpB3Mo1QmMlgLMcYkL-47" value="&lt;font style=&quot;font-size: 15px;&quot;&gt;Valid&lt;/font&gt;" style="text;html=1;align=center;verticalAlign=middle;resizable=0;points=[];autosize=1;strokeColor=none;fillColor=none;horizontal=0;" vertex="1" parent="1">
          <mxGeometry x="180" y="310" width="60" height="30" as="geometry" />
        </mxCell>
        <mxCell id="5qcpB3Mo1QmMlgLMcYkL-48" value="&lt;div&gt;Enters&lt;/div&gt;&lt;div&gt;Credentials&lt;br&gt;&lt;/div&gt;" style="rhombus;whiteSpace=wrap;html=1;fillColor=#ffffff;strokeColor=#ff0000;fontSize=15;" vertex="1" parent="1">
          <mxGeometry x="140" y="200" width="120" height="98" as="geometry" />
        </mxCell>
        <mxCell id="5qcpB3Mo1QmMlgLMcYkL-49" value="" style="endArrow=open;strokeColor=#FF0000;endFill=1;rounded=0;exitX=0.5;exitY=1;exitDx=0;exitDy=0;entryX=0.5;entryY=0;entryDx=0;entryDy=0;" edge="1" parent="1" source="5qcpB3Mo1QmMlgLMcYkL-41" target="5qcpB3Mo1QmMlgLMcYkL-42">
          <mxGeometry relative="1" as="geometry">
            <mxPoint x="240" y="100" as="targetPoint" />
            <mxPoint x="250" y="34" as="sourcePoint" />
          </mxGeometry>
        </mxCell>
        <mxCell id="5qcpB3Mo1QmMlgLMcYkL-50" value="&lt;div&gt;Choose&lt;/div&gt;&lt;div&gt;Email&lt;br&gt;&lt;/div&gt;" style="rhombus;whiteSpace=wrap;html=1;fillColor=#ffffff;strokeColor=#ff0000;fontSize=15;" vertex="1" parent="1">
          <mxGeometry x="140" y="360" width="120" height="78" as="geometry" />
        </mxCell>
        <mxCell id="5qcpB3Mo1QmMlgLMcYkL-51" value="" style="endArrow=open;strokeColor=#FF0000;endFill=1;rounded=0;entryX=0;entryY=0.5;entryDx=0;entryDy=0;exitX=1;exitY=0.5;exitDx=0;exitDy=0;" edge="1" parent="1" source="5qcpB3Mo1QmMlgLMcYkL-50" target="5qcpB3Mo1QmMlgLMcYkL-55">
          <mxGeometry relative="1" as="geometry">
            <mxPoint x="290" y="370" as="sourcePoint" />
            <mxPoint x="360" y="400" as="targetPoint" />
          </mxGeometry>
        </mxCell>
        <mxCell id="5qcpB3Mo1QmMlgLMcYkL-53" value="&lt;font style=&quot;font-size: 15px;&quot;&gt;If Authorized&lt;br&gt;&lt;/font&gt;" style="text;html=1;strokeColor=none;fillColor=none;align=center;verticalAlign=middle;whiteSpace=wrap;rounded=0;" vertex="1" parent="1">
          <mxGeometry x="218" y="395" width="175" height="30" as="geometry" />
        </mxCell>
        <mxCell id="5qcpB3Mo1QmMlgLMcYkL-55" value="Searching unwanted emails" style="whiteSpace=wrap;html=1;fontSize=15;fillColor=#FFFFFF;strokeColor=#000000;fontColor=rgb(0, 0, 0);" vertex="1" parent="1">
          <mxGeometry x="360" y="369" width="120" height="60" as="geometry" />
        </mxCell>
        <mxCell id="5qcpB3Mo1QmMlgLMcYkL-56" value="" style="edgeStyle=elbowEdgeStyle;elbow=horizontal;verticalAlign=bottom;endArrow=open;endSize=8;strokeColor=#FF0000;endFill=1;rounded=0;exitX=0.5;exitY=1;exitDx=0;exitDy=0;entryX=0;entryY=0.5;entryDx=0;entryDy=0;" edge="1" parent="1" source="5qcpB3Mo1QmMlgLMcYkL-50" target="5qcpB3Mo1QmMlgLMcYkL-58">
          <mxGeometry x="267.5" y="518" as="geometry">
            <mxPoint x="370" y="500" as="targetPoint" />
            <mxPoint x="200" y="438" as="sourcePoint" />
            <Array as="points">
              <mxPoint x="200" y="500" />
            </Array>
          </mxGeometry>
        </mxCell>
        <mxCell id="5qcpB3Mo1QmMlgLMcYkL-57" value="&lt;font style=&quot;font-size: 15px;&quot;&gt;If not authorized&lt;br&gt;&lt;/font&gt;" style="text;html=1;strokeColor=none;fillColor=none;align=center;verticalAlign=middle;whiteSpace=wrap;rounded=0;" vertex="1" parent="1">
          <mxGeometry x="200" y="460" width="175" height="30" as="geometry" />
        </mxCell>
        <mxCell id="5qcpB3Mo1QmMlgLMcYkL-58" value="Authorization" style="whiteSpace=wrap;html=1;fontSize=15;fillColor=#FFFFFF;strokeColor=#000000;fontColor=rgb(0, 0, 0);" vertex="1" parent="1">
          <mxGeometry x="360" y="460" width="120" height="60" as="geometry" />
        </mxCell>
        <mxCell id="5qcpB3Mo1QmMlgLMcYkL-62" value="" style="endArrow=open;strokeColor=#FF0000;endFill=1;rounded=0;exitX=0.5;exitY=0;exitDx=0;exitDy=0;entryX=0.5;entryY=1;entryDx=0;entryDy=0;" edge="1" parent="1" source="5qcpB3Mo1QmMlgLMcYkL-58" target="5qcpB3Mo1QmMlgLMcYkL-55">
          <mxGeometry relative="1" as="geometry">
            <mxPoint x="540" y="388" as="targetPoint" />
            <mxPoint x="540" y="438" as="sourcePoint" />
          </mxGeometry>
        </mxCell>
        <mxCell id="5qcpB3Mo1QmMlgLMcYkL-65" value="" style="endArrow=open;strokeColor=#FF0000;endFill=1;rounded=0;exitX=1;exitY=0.5;exitDx=0;exitDy=0;entryX=0;entryY=0.5;entryDx=0;entryDy=0;" edge="1" parent="1" source="5qcpB3Mo1QmMlgLMcYkL-55" target="5qcpB3Mo1QmMlgLMcYkL-66">
          <mxGeometry relative="1" as="geometry">
            <mxPoint x="500" y="430" as="sourcePoint" />
            <mxPoint x="600" y="400" as="targetPoint" />
          </mxGeometry>
        </mxCell>
        <mxCell id="5qcpB3Mo1QmMlgLMcYkL-66" value="&lt;div&gt;Selecting Emails&lt;/div&gt;&lt;div&gt;to block&lt;br&gt;&lt;/div&gt;" style="whiteSpace=wrap;html=1;fontSize=15;fillColor=#FFFFFF;strokeColor=#000000;fontColor=rgb(0, 0, 0);" vertex="1" parent="1">
          <mxGeometry x="540" y="369" width="120" height="60" as="geometry" />
        </mxCell>
        <mxCell id="5qcpB3Mo1QmMlgLMcYkL-67" value="" style="ellipse;html=1;shape=endState;fillColor=#000000;strokeColor=#ff0000;fontSize=15;" vertex="1" parent="1">
          <mxGeometry x="585" y="475" width="30" height="30" as="geometry" />
        </mxCell>
        <mxCell id="5qcpB3Mo1QmMlgLMcYkL-68" value="" style="endArrow=open;strokeColor=#FF0000;endFill=1;rounded=0;entryX=0.5;entryY=0;entryDx=0;entryDy=0;exitX=0.5;exitY=1;exitDx=0;exitDy=0;" edge="1" parent="1" source="5qcpB3Mo1QmMlgLMcYkL-66" target="5qcpB3Mo1QmMlgLMcYkL-67">
          <mxGeometry relative="1" as="geometry">
            <mxPoint x="690" y="480" as="targetPoint" />
            <mxPoint x="690" y="440" as="sourcePoint" />
          </mxGeometry>
        </mxCell>
      </root>
    </mxGraphModel>
  </diagram>
</mxfile>
